
<svg width="40px" height="40px" viewBox="0 0 40 40" version="1.1" xmlns="http://www.w3.org/2000/svg" xmlns:xlink="http://www.w3.org/1999/xlink">
    <!-- Generator: Sketch 47.1 (45422) - http://www.bohemiancoding.com/sketch -->
    <desc>Created with Sketch.</desc>
    <defs></defs>
    <g id="Page-1" stroke="none" stroke-width="1" fill="none" fill-rule="evenodd">
        <g id="Landing-Page-Desktop" transform="translate(-877.000000, -22.000000)" fill="#000000">
            <g id="shopping-cart" transform="translate(877.000000, 22.000000)">
                <path d="M12,32 C9.8,32 8,33.8 8,36 C8,38.2 9.8,40 12,40 C14.2,40 16,38.2 16,36 C16,33.8 14.2,32 12,32 L12,32 Z M0,0 L0,4 L4,4 L11.2,19.2 L8.4,24 C8.2,24.6 8,25.4 8,26 C8,28.2 9.8,30 12,30 L36,30 L36,26 L12.8,26 C12.6,26 12.4,25.8 12.4,25.6 L12.4,25.4 L14.2,22 L29,22 C30.6,22 31.8,21.2 32.4,20 L39.6,7 C40,6.6 40,6.4 40,6 C40,4.8 39.2,4 38,4 L8.4,4 L6.6,0 L0,0 L0,0 Z M32,32 C29.8,32 28,33.8 28,36 C28,38.2 29.8,40 32,40 C34.2,40 36,38.2 36,36 C36,33.8 34.2,32 32,32 L32,32 Z" id="Shape"></path>
            </g>
        </g>
    </g>
</svg>
