<?xml version="1.0" encoding="UTF-8"?>
<svg width="306px" height="114px" viewBox="0 0 306 114" version="1.1" xmlns="http://www.w3.org/2000/svg" xmlns:xlink="http://www.w3.org/1999/xlink">
    <defs></defs>
    <g id="Page-1" stroke="none" stroke-width="1" fill="none" fill-rule="evenodd">
        <g id="Artboard-4" transform="translate(-26.000000, -72.000000)">
            <g id="Group" transform="translate(36.000000, 72.000000)">
                <polygon id="Path-9" stroke="#060606" stroke-width="13" fill-rule="nonzero" points="62.1558536 100.580659 1.6907275 32.0117251 0 33.540135 62.1325781 104 126 33.5518602 124.33024 32"></polygon>
                <polygon id="Path-10" stroke="#060606" stroke-width="13" fill-rule="nonzero" points="70.6927858 32 69 33.5691226 131.316875 104 193 33.5646815 191.299395 32.0044411 131.30815 100.50782"></polygon>
                <path d="M191,28.0117775 C201.826616,28.1599796 209.406676,28.1951565 213.740182,28.117308 C223.165353,27.9479911 234.004921,28.0117775 238.672389,28.0117775 C267.137382,28.0117775 288.561832,46.727717 288.790039,67 C289.10967,95.3937387 263.292362,105.418278 238.672389,105.937074 C231.953445,106.078657 235.260944,105.937074 213.740182,105.937074 C199.393007,105.937074 191.812946,105.937074 191,105.937074" id="Path-2" stroke="#050505" stroke-width="13"></path>
                <circle id="Oval-Copy-2" fill="#000000" cx="143.5" cy="7.5" r="7.5"></circle>
                <circle id="Oval-Copy" fill="#000000" cx="204.5" cy="7.5" r="7.5"></circle>
            </g>
        </g>
    </g>
</svg>
